<?xml version="1.0" encoding="utf-8"?><!-- Uploaded to: SVG Repo, www.svgrepo.com, Generator: SVG Repo Mixer Tools -->
<svg width="800px" height="800px" viewBox="0 0 24 24" fill="none" xmlns="http://www.w3.org/2000/svg">
<path fill-rule="evenodd" clip-rule="evenodd" d="M13.5001 3.75C13.9143 3.75 14.2501 4.08579 14.2501 4.5V7.5V12.75H15.7501V7.5C15.7501 7.08579 16.0858 6.75 16.5001 6.75C16.9143 6.75 17.2501 7.08579 17.2501 7.5V15C17.2501 17.8995 14.8996 20.25 12.0001 20.25V21.75C15.728 21.75 18.7501 18.7279 18.7501 15V7.5C18.7501 6.25736 17.7427 5.25 16.5001 5.25C16.2371 5.25 15.9846 5.29512 15.7501 5.37803V4.5C15.7501 3.25736 14.7427 2.25 13.5001 2.25C12.4625 2.25 11.5889 2.95235 11.3289 3.90757C11.0724 3.80589 10.7927 3.75 10.5001 3.75C9.25742 3.75 8.25006 4.75736 8.25006 6V12.5344L7.77377 11.5689L7.77221 11.5657C7.21726 10.4539 5.86607 10.0024 4.75422 10.5574C3.65214 11.1075 3.1989 12.4399 3.7315 13.546L5.03741 16.7808L5.06205 16.8354C6.16787 19.047 7.45919 20.2994 8.73651 20.9857C10.0096 21.6696 11.194 21.75 12.0001 21.75V20.25C11.3061 20.25 10.4069 20.1803 9.44641 19.6643C8.49439 19.1528 7.40758 18.1618 6.41695 16.191L5.11239 12.9597L5.08798 12.9055C4.903 12.5349 5.05349 12.0845 5.4241 11.8995C5.79428 11.7147 6.24405 11.8646 6.42944 12.2343L8.32743 16.0818L9.75004 15.75V14.25H9.75006V6C9.75006 5.58579 10.0858 5.25 10.5001 5.25C10.9143 5.25 11.2501 5.58579 11.2501 6V12.75H12.7501V6V4.5C12.7501 4.08579 13.0858 3.75 13.5001 3.75Z" fill="#080341"/>
</svg>