<?xml version="1.0" encoding="UTF-8"?>
<svg xmlns="http://www.w3.org/2000/svg" xmlns:svg="http://www.w3.org/2000/svg" xmlns:sodipodi="http://sodipodi.sourceforge.net/DTD/sodipodi-0.dtd" xmlns:rdf="http://www.w3.org/1999/02/22-rdf-syntax-ns#" xmlns:inkscape="http://www.inkscape.org/namespaces/inkscape" xmlns:dc="http://purl.org/dc/elements/1.1/" xmlns:cc="http://creativecommons.org/ns#" version="1.1" viewBox="0 0 315.3 316.05">
  <!-- Generator: Adobe Illustrator 30.1.0, SVG Export Plug-In . SVG Version: 2.1.1 Build 136)  -->
  <defs>
    <style>
      .st0 {
        fill: #fff;
      }
    </style>
  </defs>
  <g id="Layer_1" inkscape:version="0.92.2 (5c3e80d, 2017-08-06)" sodipodi:docname="GlobalSigbank_logo_white.svg">
    <sodipodi:namedview id="namedview14" bordercolor="#666666" borderopacity="1" fit-margin-bottom="0" fit-margin-left="0" fit-margin-right="0" fit-margin-top="0" gridtolerance="10" guidetolerance="10" inkscape:current-layer="Layer_1" inkscape:cx="-257.27225" inkscape:cy="141.88017" inkscape:pageopacity="0" inkscape:pageshadow="2" inkscape:window-height="1001" inkscape:window-maximized="1" inkscape:window-width="1920" inkscape:window-x="-9" inkscape:window-y="-9" inkscape:zoom="0.79285994" objecttolerance="10" showgrid="false"/>
    <path class="st0" d="M141.86,16.24c10.9,1.68,20.21,8.39,25.18,18.14,1.57,3.07,2.12,4.58,3.72,10.17.28.98.42,5.48.5,17.22l.11,15.88-1.26.17c-6.04.84-11.46,2.85-19.59,7.27-3.86,2.1-6.65,3.49-6.88,3.49-.11,0-.17-3.02-.17-6.71,0-10.03-.61-14.93-2.43-19.51-1.84-4.7-4.95-7.69-9.42-9.03-1.76-.53-2.49-.59-6.01-.45-3.94.17-5.03.36-8.86,1.68-2.12.7-6.35,2.74-7.07,3.38-.25.22-.53.42-.62.42-.11,0-1.01.48-2.04,1.06s-2.6,1.45-3.47,1.96c-9.34,5.17-14.26,7.91-15.71,8.72-2.4,1.29-3.33,2.21-4.16,4.05l-.67,1.54v55.01l.67,1.48c1.7,3.63,6.35,5.7,9.89,4.44.59-.22,2.29-1.12,3.83-2.01,1.51-.89,5-2.94,7.74-4.5,7.38-4.25,19.71-11.38,39.19-22.61,17.44-10.09,19.26-11.07,22.81-12.24,5.37-1.79,7.49-2.12,13.58-2.12,4.28.03,5.87.14,7.49.56,7.13,1.85,12.35,4.75,17.02,9.42,3.77,3.77,6.18,7.58,8.13,12.77,2.88,7.74,2.91,8.13,2.8,35.53l-.08,23.03-.81,3.8c-.84,3.83-2.38,8.89-3.47,11.24-.31.67-.56,1.31-.56,1.43,0,.53-3.21,6.49-4.84,8.97-3.3,5-6.54,8.5-12.05,12.94-2.49,2.01-8.36,6.09-8.78,6.07-.06,0-1.09.59-2.26,1.29-1.2.7-2.77,1.59-3.47,2.01-1.12.62-21.35,12.21-24.65,14.12-.59.34-2.57,1.45-4.42,2.49-1.84,1.03-3.49,1.98-3.66,2.12-.17.11-1.03.61-1.9,1.09-.89.5-4.67,2.66-8.39,4.78-3.72,2.12-7.27,4.16-7.91,4.53-.64.39-2.04,1.17-3.07,1.79-1.06.59-2.38,1.34-2.93,1.68-.59.31-1.9,1.09-2.94,1.68-1.06.61-2.38,1.37-2.93,1.7-2.1,1.15-9.95,5.65-13.36,7.6-1.96,1.12-3.77,2.12-4.05,2.24-.48.17-.5-1.9-.5-41.45v-41.65l.81-.56c.45-.31,3.52-2.12,6.82-4.03,3.3-1.93,8.78-5.09,12.19-7.04,7.3-4.25,7.94-4.58,8.16-4.36.11.11.2,8.67.2,19.01,0,12.97.11,19.17.34,19.99.92,3.3,4.5,6.01,7.99,6.01,1.45,0,3.66-.75,5.39-1.84.67-.45,1.29-.81,1.37-.81.06,0,1.15-.59,2.43-1.34,1.26-.75,5.31-3.1,9.03-5.25,3.72-2.15,9.64-5.56,13.19-7.6,3.55-2.04,7.27-4.3,8.3-5.03,6.71-4.81,10.57-10.82,12.35-19.31.73-3.52.7-22.53-.06-26.55-1.76-9.42-5.81-14.65-12.44-16.04-6.23-1.31-15.26.75-22.81,5.23-.64.39-1.79,1.03-2.49,1.45-1.31.73-17.78,10.15-33.46,19.15-4.44,2.54-8.55,4.89-9.11,5.23-.56.31-1.87,1.06-2.94,1.68-1.06.61-2.38,1.37-2.94,1.68-.56.34-4.67,2.68-9.08,5.23-4.44,2.54-9.87,5.65-12.05,6.9-2.18,1.23-4.81,2.74-5.87,3.35-1.06.61-3.21,1.87-4.84,2.8-4.81,2.74-5.2,2.96-7.18,4.11-5.03,2.91-7.16,4.11-7.44,4.11-.11,0-.2-30.22-.2-67.17,0-63.59,0-67.2.5-67.62.39-.34,8.11-4.84,15.49-9.03.84-.48,5.7-3.3,11.6-6.68,1.51-.89,3.16-1.84,3.66-2.12,1.93-1.09,17.25-9.92,20.54-11.82,10.98-6.37,13.84-7.8,18.2-9.11,5.31-1.59,11.74-2.07,17.02-1.23ZM129.09.28c-10.17,1.59-15.51,3.49-24.4,8.72-2.18,1.29-4.56,2.66-5.28,3.05-.7.42-3.52,2.04-6.26,3.61-6.29,3.63-14.28,8.22-15.99,9.2-.73.42-2.29,1.31-3.49,2.01-1.17.7-2.21,1.26-2.26,1.26-.08,0-.67.36-1.31.75-.67.42-1.62,1.01-2.12,1.29-.53.28-3.66,2.1-6.96,4-12.1,6.96-13.67,7.85-14.67,8.44-4.67,2.6-6.35,4.19-7.16,6.74-.45,1.43-.48,7.66-.39,80.05l.06,78.52.67,1.34c.84,1.65,1.98,2.88,3.83,4.03.75.47,9.98,5.79,20.52,11.77l19.15,10.93.08,24.43.08,24.4.73,1.43c.7,1.4,2.15,2.77,3.97,3.75.48.28,10.96,6.23,23.26,13.28l22.39,12.8h1.76c2.21,0,3.3-.45,8.36-3.38,6.12-3.58,17.75-10.29,20.54-11.88.81-.48,7.13-4.08,13.36-7.69,2.93-1.7,8.22-4.78,14.45-8.36,2.04-1.17,5.42-3.13,7.46-4.3,6.4-3.69,18.56-10.68,24.15-13.92,1.54-.89,4.98-2.88,7.63-4.42,2.66-1.54,6.23-3.58,7.94-4.56,14.51-8.25,24.82-19.62,31.42-34.69,2.07-4.72,4.16-12.08,5.31-18.67.67-3.89.67-4.08.67-29.46s.03-25.69-1.23-31.39c-1.79-8.08-5.53-15.9-10.71-22.33-4.08-5.06-7.99-8.3-14.87-12.35-2.38-1.4-4.89-2.88-5.62-3.33-.73-.42-2.32-1.37-3.52-2.07-1.2-.67-2.79-1.62-3.52-2.07-.73-.45-2.04-1.2-2.93-1.68l-1.62-.89-.17-12.58c-.17-13.19-.28-14.59-1.73-20.18-1.76-6.68-5.25-14.37-8.64-19.09-3.55-4.89-8.55-9.76-13.22-12.89-2.04-1.37-45.7-26.3-49.31-28.18-5.79-2.99-9.95-4.33-16.44-5.31-3.16-.47-11.24-.53-13.95-.11Z"/>
  </g>
</svg>