<?xml version="1.0" encoding="UTF-8" standalone="no"?>
<!-- Generator: Adobe Illustrator 22.0.1, SVG Export Plug-In . SVG Version: 6.00 Build 0)  -->

<svg
   xmlns:dc="http://purl.org/dc/elements/1.1/"
   xmlns:cc="http://creativecommons.org/ns#"
   xmlns:rdf="http://www.w3.org/1999/02/22-rdf-syntax-ns#"
   xmlns:svg="http://www.w3.org/2000/svg"
   xmlns="http://www.w3.org/2000/svg"
   xmlns:sodipodi="http://sodipodi.sourceforge.net/DTD/sodipodi-0.dtd"
   xmlns:inkscape="http://www.inkscape.org/namespaces/inkscape"
   version="1.1"
   id="Layer_1"
   x="0px"
   y="0px"
   viewBox="0 0 315.29999 316.05251"
   xml:space="preserve"
   inkscape:version="0.91 r13725"
   sodipodi:docname="GlobalSigbank_logo_white.svg"
   width="315.29999"
   height="316.05252"><metadata
     id="metadata18"><rdf:RDF><cc:Work
         rdf:about=""><dc:format>image/svg+xml</dc:format><dc:type
           rdf:resource="http://purl.org/dc/dcmitype/StillImage" /><dc:title></dc:title></cc:Work></rdf:RDF></metadata><defs
     id="defs16" /><sodipodi:namedview
     pagecolor="#ffffff"
     bordercolor="#666666"
     borderopacity="1"
     objecttolerance="10"
     gridtolerance="10"
     guidetolerance="10"
     inkscape:pageopacity="0"
     inkscape:pageshadow="2"
     inkscape:window-width="1615"
     inkscape:window-height="1026"
     id="namedview14"
     showgrid="false"
     fit-margin-top="0"
     fit-margin-left="0"
     fit-margin-right="0"
     fit-margin-bottom="0"
     inkscape:zoom="0.79285994"
     inkscape:cx="252.2755"
     inkscape:cy="141.88017"
     inkscape:window-x="65"
     inkscape:window-y="24"
     inkscape:window-maximized="1"
     inkscape:current-layer="Layer_1" /><style
     type="text/css"
     id="style3">
	.st0{fill:#FFFFFF;}
</style><g
     id="XMLID_483_"
     transform="translate(-139.9,-260.7)"><g
       id="XMLID_490_"><path
         id="XMLID_491_"
         class="st0"
         d="m 455.2,418.4 c 0,54 -25.4,90.1 -46.8,110.8 -23.1,22.4 -45.9,31.9 -46.8,32.3 -1,0.4 -2.1,0.3 -2.9,-0.3 -0.9,-0.6 -1.4,-1.6 -1.4,-2.6 l 0,-119.8 c 0,-1.4 1,-2.7 2.3,-3 10.9,-2.9 24.8,-18.3 36,-30.7 4.1,-4.5 8,-8.8 11.4,-12.2 2.3,-2.3 2.5,-4.8 0.5,-7.3 -3.4,-4.3 -11.2,-6.7 -16.6,-3.3 -3.7,2.3 -6.8,4.5 -9.5,6.4 -6.4,4.6 -11.5,8.2 -15.7,4 -0.9,-0.9 -1.1,-2.3 -0.6,-3.4 0.2,-0.4 18.2,-42.7 22.7,-56.9 1.9,-6.1 0.1,-10.6 -2.7,-11.9 -2.7,-1.2 -5.8,0.6 -8.3,4.6 -1.5,2.4 -4.8,8.9 -8.4,15.7 -2.9,5.5 -5.8,11.2 -8.2,15.5 -4,7.3 -5.2,9.5 -8.1,8.7 -1.3,-0.4 -2.5,-1.6 -2.4,-3.5 0,-0.7 0.4,-2.7 1.8,-10.6 2.4,-13.8 8.2,-46 7.7,-51.1 -0.4,-4.9 -3.8,-7.1 -7,-7.2 -3,-0.1 -6.5,1.7 -7.2,7 -0.3,2.1 -3.2,17 -6.3,31.9 -1.7,8.3 -3.2,15.1 -4.4,20 -2.2,9.2 -2.9,11 -5.4,11.4 -1.4,0.2 -2.8,-0.6 -3.4,-2 -2,-4.6 -7.8,-47.6 -8.5,-55.4 -0.5,-4 -3.6,-5.5 -6.4,-5.2 -2.8,0.3 -5.9,2.5 -5.5,7.8 0.2,2.1 1.2,15.5 1.8,29.3 1.2,27 -0.3,28.7 -1.4,30 -0.7,0.8 -1.5,1.2 -2.5,1.3 -2,0.1 -4.2,0.2 -13.9,-17.2 -4.6,-8.2 -9,-17.1 -9.9,-19.6 -1.4,-3.9 -4.4,-5.1 -6.8,-4.5 -2.5,0.6 -5.1,3.5 -4.2,9.5 0.4,2.6 7.6,24.4 12.8,40.4 3.2,9.7 6.2,18.9 7.6,23.5 4.7,15.2 15.5,19.1 15.9,19.2 1.6,0.6 2.5,2.3 2,4 -0.5,1.6 -2.3,2.5 -3.9,2 -0.6,-0.2 -14.3,-4.8 -20,-23.3 -1.4,-4.5 -4.4,-13.7 -7.6,-23.3 -7.6,-23.2 -12.6,-38.6 -13.1,-41.5 -1.4,-9.5 3.5,-15.1 8.9,-16.5 6.7,-1.7 12.3,3 14.2,8.5 1.3,3.8 10.6,21.5 15.9,29.4 0.4,-11.2 -1.2,-38.3 -2.2,-50.4 -0.6,-6.6 3.1,-13.8 11.1,-14.6 5.9,-0.6 12.3,2.9 13.3,10.8 0,0 0,0.1 0,0.1 0.6,6.8 3.5,28.2 5.7,41.8 3.7,-16.3 9.3,-44.6 9.8,-48.1 1.3,-8.8 7.8,-12.5 13.7,-12.4 5.8,0.2 12.3,4.3 13.1,13 0.4,5 -3,25.5 -6.6,46.1 1.4,-2.6 2.7,-5.1 3.9,-7.4 3.8,-7.2 7,-13.5 8.6,-16.1 5.1,-8.4 12,-9.1 16.3,-7.1 5.2,2.4 9.3,9.5 6.1,19.5 -3.7,11.7 -15.9,41 -20.8,52.6 1.5,-0.9 3.3,-2.2 4.8,-3.3 2.7,-1.9 6,-4.2 9.9,-6.7 8.5,-5.2 19.7,-1.7 24.8,4.8 4,5.1 3.6,11.1 -1.1,15.7 -3.3,3.2 -7.1,7.4 -11.1,11.9 -11.6,12.9 -24.6,27.3 -36.7,31.8 l 0,112.5 c 7.6,-3.8 24.3,-13.2 40.7,-29.1 29.7,-28.9 44.7,-64.6 44.7,-106.1 0,-56.1 -25.9,-91.5 -47.6,-111.3 -27.9,-25.5 -65.8,-40.1 -103.8,-40.1 -34.5,0 -71.7,14 -99.6,37.5 -23.6,19.9 -51.8,55.9 -51.8,114.5 0,44.1 18.2,84.5 51.4,113.8 30.5,27 70.6,40.6 107.7,36.9 l 0,-18.6 c -11.6,0.5 -49.7,0.3 -76,-18.6 -1.4,-1 -1.7,-3 -0.7,-4.4 1,-1.4 3,-1.7 4.4,-0.7 28.8,20.7 74.7,17.3 75.2,17.2 0.9,-0.1 1.7,0.2 2.4,0.8 0.6,0.6 1,1.4 1,2.3 l 0,24.8 c 0,1.6 -1.2,2.9 -2.8,3.1 C 269.1,580.7 226,566.5 193.3,537.7 158.9,507 139.9,465 139.9,419 c 0,-61 29.4,-98.6 54,-119.3 29,-24.4 67.8,-39 103.7,-39 39.6,0 79,15.2 108.1,41.7 22.6,20.7 49.5,57.5 49.5,116 z"
         inkscape:connector-curvature="0"
         style="fill:#ffffff" /></g><g
       id="XMLID_488_"><path
         id="XMLID_489_"
         class="st0"
         d="m 318,447.2 c 0,0.6 -0.2,12.1 -11.4,26.3 -4.2,5.2 -12.1,17.1 -19.1,27.5 -8.3,12.4 -13.1,19.4 -14.8,21.1 -5.4,5.2 -11.7,5.1 -15.5,2.7 -4,-2.5 -5.6,-7.4 -4,-12.5 0.4,-1.2 1.2,-3.4 2.4,-6.5 1.9,-4.9 6.1,-16 7.8,-22.4 -8,6.1 -25.4,22.2 -37.6,34.1 -5.7,5.5 -12.7,3.9 -16.9,0.1 -4.3,-3.9 -6.3,-10.8 -1.8,-16.2 3.9,-4.7 11.2,-12.7 18.3,-20.3 3.2,-3.4 6.7,-7.2 9.8,-10.6 -7.5,3.8 -19.6,10.3 -39.4,21.1 -1.6,0.9 -2.8,1.5 -3.2,1.8 -8.8,4.7 -16.2,1.2 -19.7,-4.3 -4.4,-7 -1.6,-14.2 3.3,-17.7 4.1,-2.9 24.4,-14.6 39.3,-23.1 0.2,-0.1 0.4,-0.2 0.5,-0.3 -2.9,0.6 -5.8,1.3 -8.4,1.8 -8,1.7 -14.9,3.2 -17.9,3.7 -9.7,1.4 -14.6,-3.4 -15.9,-8 -1.5,-5.5 1.3,-13.2 11.1,-17.2 11.1,-4.5 40,-13.4 52.7,-17.3 -1.5,-0.3 -3.3,-0.6 -4.8,-0.9 -3.5,-0.6 -7.9,-1.4 -12.7,-2.7 -8.8,-2.3 -14.3,-14 -12.6,-21.9 0.5,-2.5 3.1,-10.4 14.9,-8.6 10.7,1.6 23,3.9 33.8,5.9 9.3,1.7 18.1,3.3 24.1,4.2 1.7,0.3 2.9,1.9 2.6,3.6 -0.3,1.7 -1.9,2.9 -3.6,2.6 -6.1,-0.9 -15,-2.5 -24.3,-4.2 -10.8,-2 -23,-4.2 -33.6,-5.8 -6.8,-1 -7.6,2.5 -7.8,3.6 -1.2,5.9 3.6,13.3 8.1,14.5 4.5,1.2 8.6,1.9 12.2,2.6 8.1,1.5 14.5,2.6 13.8,8.6 -0.1,1.3 -1,2.3 -2.2,2.7 -0.4,0.1 -44.4,13.3 -58.2,18.9 -5.9,2.4 -8.2,6.7 -7.4,9.7 0.8,2.8 4.2,4.1 8.9,3.4 2.8,-0.4 9.9,-1.9 17.4,-3.6 6,-1.3 12.3,-2.7 17.2,-3.6 8.2,-1.6 10.6,-2.1 11.8,0.7 0.5,1.2 0.4,2.9 -1.2,4 -0.7,0.5 -4.6,2.8 -15.5,9 -13.9,8 -35,20.1 -38.8,22.8 -3.5,2.5 -3.3,6.6 -1.6,9.3 1.8,3 5.8,5.1 11.4,2.1 0.4,-0.2 1.5,-0.8 3.2,-1.7 6.1,-3.3 18.7,-10.2 30,-16.2 6.4,-3.4 11.5,-6 15.1,-7.8 6.6,-3.2 8.6,-4.1 10.5,-2.2 1,1 1.3,2.5 0.6,3.8 -1.1,2.3 -6.6,8.4 -18.9,21.7 -7,7.6 -14.3,15.4 -18.1,20 -2.1,2.5 -0.9,5.7 1.2,7.6 0.7,0.7 4.5,3.7 8.2,0.1 2.6,-2.5 12.1,-11.7 21.3,-20.1 20,-18.2 22.3,-18.1 24,-18.1 1,0 1.9,0.4 2.6,1.1 2.4,2.5 1.6,7.3 -7.8,32.1 -1.1,2.8 -2,5.2 -2.3,6.2 -0.8,2.4 -0.3,4.3 1.3,5.3 1.8,1.1 4.9,0.9 7.8,-1.9 1.3,-1.3 8,-11.3 13.9,-20.1 7.1,-10.6 15.1,-22.5 19.4,-27.9 9.8,-12.3 10,-22.3 10,-22.4 0,-1.7 1.4,-3.1 3.2,-3.1 1.9,-0.3 3.3,1.1 3.3,2.9 0,0 0,0 0,0 z"
         inkscape:connector-curvature="0"
         style="fill:#ffffff" /></g><g
       id="XMLID_486_"><path
         id="XMLID_487_"
         class="st0"
         d="m 297.1,289.3 c 0,1.7 -1.4,3.1 -3.1,3.1 l -1,0 c -12.8,0.2 -51.8,1 -89,38.5 -41.6,41.9 -35.5,93.3 -35.4,93.8 0.2,1.7 -1,3.3 -2.7,3.5 -1.7,0.2 -3.3,-1 -3.5,-2.7 -0.3,-2.2 -6.5,-54.9 37.2,-99 39,-39.3 79.9,-40.1 93.4,-40.4 l 1,0 c 1.6,0 3,1.4 3.1,3.2 0,0 0,0 0,0 z"
         inkscape:connector-curvature="0"
         style="fill:#ffffff" /></g><g
       id="XMLID_484_"><path
         id="XMLID_485_"
         class="st0"
         d="m 432.8,415.7 c 0,11.7 -1.4,24.4 -5.3,37.5 -11.8,40.5 -47.7,70 -49.2,71.3 -1.3,1.1 -3.3,0.9 -4.4,-0.5 -1.1,-1.3 -0.9,-3.3 0.5,-4.4 0.4,-0.3 35.9,-29.5 47.2,-68.2 14.1,-48.4 -6.6,-92.4 -6.8,-92.8 -0.8,-1.6 -0.1,-3.4 1.5,-4.2 1.6,-0.8 3.4,-0.1 4.2,1.5 0.6,1.4 12.3,26.3 12.3,59.8 z"
         inkscape:connector-curvature="0"
         style="fill:#ffffff" /></g></g></svg>